<?xml version="1.0" encoding="iso-8859-1"?>
<!-- Uploaded to: SVG Repo, www.svgrepo.com, Generator: SVG Repo Mixer Tools -->
<svg fill="#000000" version="1.1" id="Layer_1" xmlns="http://www.w3.org/2000/svg" xmlns:xlink="http://www.w3.org/1999/xlink" 
	 viewBox="0 0 492.308 492.308" xml:space="preserve">
<g>
	<g>
		<path d="M433.231,75.401H59.077C26.5,75.401,0,101.901,0,134.478v223.351c0,32.577,26.5,59.077,59.077,59.077h374.154
			c32.577,0,59.077-26.5,59.077-59.077V134.478C492.308,101.901,465.808,75.401,433.231,75.401z M59.077,95.094h374.154
			c21.214,0,38.445,16.894,39.236,37.918H19.841C20.632,111.988,37.863,95.094,59.077,95.094z M472.615,357.829
			c0,21.721-17.668,39.385-39.385,39.385H59.077c-21.716,0-39.385-17.663-39.385-39.385V229.012h452.923V357.829z M472.615,209.32
			H19.692v-56.615h452.923V209.32z"/>
	</g>
</g>
<g>
	<g>
		<rect x="313.177" y="295.68" width="19.692" height="19.692"/>
	</g>
</g>
<g>
	<g>
		<rect x="362.407" y="295.68" width="19.692" height="19.692"/>
	</g>
</g>
<g>
	<g>
		<rect x="411.638" y="295.68" width="19.692" height="19.692"/>
	</g>
</g>
<g>
	<g>
		<rect x="229.484" y="341.701" width="201.846" height="19.692"/>
	</g>
</g>
</svg>