<svg width="50" height="47" viewBox="0 0 50 47" fill="none" xmlns="http://www.w3.org/2000/svg">
<path d="M17.6714 46.7319C17.6813 44.8135 17.7011 42.8951 17.706 40.9767C17.7208 33.6542 17.7357 26.3268 17.7456 19.0043C17.7456 17.8819 17.7011 16.7596 17.6813 15.6422C17.6813 15.568 17.6813 15.4939 17.6813 15.4246C17.8247 15.3801 27.7923 15.3653 28.0939 15.4098C28.0939 16.8585 28.0939 18.3121 28.0939 19.7657C28.1088 19.7707 28.1187 19.7756 28.1335 19.7756C28.173 19.7163 28.2175 19.6619 28.2571 19.6026C29.1174 18.3368 30.1409 17.2342 31.4165 16.3838C32.6872 15.5334 34.0864 15.0044 35.5994 14.7819C37.5573 14.4902 39.5004 14.594 41.3941 15.1774C44.415 16.1119 46.6004 18.0402 47.9897 20.8732C48.5831 22.0846 48.944 23.3652 49.1764 24.6902C49.3445 25.6643 49.4631 26.6432 49.4681 27.6321C49.4681 27.7062 49.4879 27.7755 49.4978 27.8496C49.4978 34.1486 49.4978 40.4427 49.4978 46.7417C46.0269 46.7417 42.551 46.7417 39.0801 46.7417C39.0801 46.717 39.0851 46.6874 39.0851 46.6626C39.0851 41.0014 39.0851 35.3402 39.0801 29.679C39.0801 28.8583 39.001 28.0474 38.8379 27.2464C38.6747 26.4455 38.4176 25.684 37.9825 24.9869C37.3843 24.0326 36.5437 23.4047 35.4609 23.113C34.6896 22.9053 33.9035 22.8658 33.1124 22.9449C32.4004 23.0191 31.7181 23.2069 31.1001 23.5778C30.1804 24.1266 29.4783 24.8929 28.9295 25.8027C28.5587 26.4158 28.2917 27.0684 28.1928 27.7804C28.1187 28.3193 28.0989 28.8583 28.0989 29.3972C28.0989 35.093 28.0989 40.7888 28.0989 46.4797C28.0989 46.5687 28.0989 46.6577 28.0989 46.7417C24.6181 46.7319 21.1472 46.7319 17.6714 46.7319Z" fill="#0077B7"/>
<path d="M1.45898 46.7319C1.46393 46.638 1.46887 46.544 1.46887 46.4501C1.46887 36.1956 1.46887 25.9412 1.46887 15.6867C1.46887 15.5928 1.46887 15.4988 1.46887 15.395C4.94965 15.395 8.4057 15.395 11.8716 15.395C11.8766 15.4346 11.8914 15.4791 11.8914 15.5236C11.8964 15.5928 11.8914 15.6571 11.8914 15.7263C11.8914 25.961 11.8914 36.1956 11.8914 46.4303C11.8914 46.5292 11.8815 46.633 11.8766 46.7319C8.40076 46.7319 4.92987 46.7319 1.45898 46.7319Z" fill="#0077B7"/>
<path d="M6.67518 11.1034C5.72588 11.1133 4.79635 10.9798 3.93605 10.5644C2.24016 9.74864 1.21174 8.41862 0.920031 6.54474C0.766758 5.54105 0.845866 4.55714 1.23152 3.61772C1.83472 2.14433 2.93235 1.17525 4.41564 0.636319C5.41933 0.275386 6.45763 0.20122 7.51077 0.295162C8.18319 0.354493 8.83583 0.48799 9.44892 0.774758C11.1992 1.58562 12.2424 2.93541 12.5292 4.85379C12.6726 5.82287 12.6232 6.78701 12.2573 7.70665C11.6936 9.12071 10.6702 10.0799 9.27093 10.6534C8.44524 10.9897 7.5701 11.1083 6.67518 11.1034Z" fill="#0077B7"/>
</svg>
