<svg width="55" height="45" viewBox="0 0 55 45" fill="none" xmlns="http://www.w3.org/2000/svg">
<path d="M48.7269 11.5074C48.7613 11.9868 48.7613 12.4663 48.7613 12.9457C48.7613 27.5679 37.5954 44.4162 17.1874 44.4162C10.9 44.4162 5.05941 42.6011 0.146362 39.4508C1.03967 39.5535 1.89851 39.5877 2.82619 39.5877C8.01399 39.5877 12.7897 37.8413 16.6033 34.8621C11.7246 34.7593 7.63613 31.5746 6.22747 27.1913C6.91467 27.294 7.60176 27.3625 8.32332 27.3625C9.31964 27.3625 10.3161 27.2254 11.2436 26.9858C6.15884 25.9584 2.34511 21.5067 2.34511 16.1304V15.9934C3.8224 16.8153 5.54039 17.329 7.36117 17.3974C4.37211 15.4112 2.41385 12.021 2.41385 8.18565C2.41385 6.13103 2.96346 4.24759 3.92551 2.60386C9.38827 9.31573 17.5996 13.6989 26.8071 14.1784C26.6354 13.3566 26.5323 12.5005 26.5323 11.6444C26.5323 5.54886 31.4797 0.583496 37.6296 0.583496C40.8247 0.583496 43.7107 1.91902 45.7378 4.07641C48.2458 3.59701 50.6507 2.67237 52.7809 1.40536C51.9563 3.97374 50.2041 6.13113 47.9023 7.50081C50.1355 7.26122 52.3 6.64468 54.2926 5.78866C52.7812 7.98021 50.8914 9.93205 48.7269 11.5074Z" fill="#4A99E9"/>
</svg>
