<svg width="47" height="47" viewBox="0 0 47 47" fill="none" xmlns="http://www.w3.org/2000/svg">
<path d="M46.7695 5.26705V41.7329C46.7695 44.4782 44.5422 46.7055 41.7969 46.7055H32.9601V28.3483H39.238L40.1393 21.3452H32.9601V16.8698C32.9601 14.8393 33.5195 13.4615 36.4306 13.4615H40.1393V7.2043C39.497 7.12142 37.3008 6.92459 34.7316 6.92459C29.386 6.92459 25.7187 10.1879 25.7187 16.1861V21.3555H19.4201V28.3586H25.7291V46.7055H5.33101C2.58572 46.7055 0.358398 44.4782 0.358398 41.7329V5.26705C0.358398 2.52175 2.58572 0.294434 5.33101 0.294434H41.7969C44.5422 0.294434 46.7695 2.52175 46.7695 5.26705Z" fill="#40549A"/>
</svg>
