<svg width="76" height="49" viewBox="0 0 76 49" fill="none" xmlns="http://www.w3.org/2000/svg">
<path d="M73.6496 7.67056C72.7897 4.65337 70.2559 2.27713 67.0389 1.47072C61.2077 0.00537109 37.8254 0.00537109 37.8254 0.00537109C37.8254 0.00537109 14.4432 0.00537109 8.61194 1.47072C5.39487 2.27726 2.86114 4.65337 2.00118 7.67056C0.438721 13.1394 0.438721 24.5496 0.438721 24.5496C0.438721 24.5496 0.438721 35.9598 2.00118 41.4286C2.86114 44.4458 5.39487 46.7231 8.61194 47.5295C14.4432 48.9948 37.8254 48.9948 37.8254 48.9948C37.8254 48.9948 61.2076 48.9948 67.0389 47.5295C70.2559 46.7231 72.7897 44.4458 73.6496 41.4286C75.2121 35.9598 75.2121 24.5496 75.2121 24.5496C75.2121 24.5496 75.2121 13.1394 73.6496 7.67056ZM30.1781 34.9092V14.19L49.721 24.5499L30.1781 34.9092Z" fill="#FF0000"/>
</svg>
