<svg width="44" height="49" viewBox="0 0 44 49" fill="none" xmlns="http://www.w3.org/2000/svg">
<g clip-path="url(#clip0_126_132)">
<path d="M43.7003 13.3461C37.6931 13.3461 32.8283 8.47621 32.8283 2.47412H24.6756V34.0355C24.6756 37.706 21.703 40.6786 18.0325 40.6786C14.3619 40.6786 11.3893 37.706 11.3893 34.0355C11.3893 30.365 14.3619 27.3924 18.0325 27.3924C18.72 27.3924 19.5007 27.4958 20.1262 27.6922V19.3844C19.4438 19.2862 18.7459 19.2396 18.0325 19.2396C9.85908 19.2396 3.23145 25.8673 3.23145 34.0407C3.23145 42.2141 9.85908 48.8417 18.0325 48.8417C26.2059 48.8417 32.8335 42.2141 32.8335 34.0407V17.3372C35.7958 19.7566 39.5852 21.2042 43.7055 21.2042V13.3513L43.7003 13.3461Z" fill="#FF1352"/>
<path d="M41.3896 11.0353C35.3823 11.0353 30.5176 6.16542 30.5176 0.16333H22.3649V31.7247C22.3649 35.3952 19.3922 38.3678 15.7217 38.3678C12.0512 38.3678 9.07858 35.3952 9.07858 31.7247C9.07858 28.0542 12.0512 25.0816 15.7217 25.0816C16.4093 25.0816 17.1899 25.185 17.8155 25.3814V17.0736C17.1331 16.9754 16.4351 16.9289 15.7217 16.9289C7.54316 16.9289 0.915527 23.5513 0.915527 31.7247C0.915527 39.8981 7.54316 46.5257 15.7165 46.5257C23.8899 46.5257 30.5176 39.8981 30.5176 31.7247V15.0212C33.4798 17.4407 37.2693 18.8882 41.3896 18.8882V11.0353Z" fill="#00F1EA"/>
<path d="M41.3897 13.098C38.7635 12.5293 36.4888 11.0094 34.943 8.92081C32.8493 7.38022 31.3345 5.10553 30.7659 2.47412H24.6707V34.0355C24.6707 37.706 21.6981 40.6786 18.0276 40.6786C15.5978 40.6786 13.4782 39.3759 12.3202 37.432C10.3763 36.274 9.07356 34.1492 9.07356 31.7246C9.07356 28.0541 12.0462 25.0815 15.7167 25.0815C16.4043 25.0815 17.1849 25.1849 17.8105 25.3813V19.2396C9.73529 19.3586 3.22656 25.9345 3.22656 34.0355C3.22656 37.5354 4.44146 40.7458 6.468 43.279C9.00118 45.3107 12.2168 46.5205 15.7115 46.5205C23.8849 46.5205 30.5126 39.8928 30.5126 31.7194V15.0211C33.4748 17.4406 37.2643 18.8881 41.3846 18.8881V13.098H41.3897Z" fill="black"/>
</g>
<defs>
<clipPath id="clip0_126_132">
<rect width="42.7849" height="48.6733" fill="white" transform="translate(0.915527 0.16333)"/>
</clipPath>
</defs>
</svg>
