<svg id="Warstwa_1" data-name="Warstwa 1" xmlns="http://www.w3.org/2000/svg" viewBox="0 0 450 300"><defs><style>.cls-1{fill:#bd3d44;}.cls-1,.cls-2,.cls-3{fill-rule:evenodd;}.cls-2{fill:#fff;}.cls-3{fill:#192f5d;}</style></defs><path class="cls-1" d="M.22.23h570V23.32H.22Zm0,46.17h570V69.49H.22Zm0,46.12h570v23.14H.22Zm0,46.17h570v23.08H.22Zm0,46.17h570V208H.22ZM.22,231h570v23.09H.22Zm0,46.17h570v23.09H.22Z"/><path class="cls-2" d="M.22,23.32h570V46.4H.22Zm0,46.17h570v23H.22Zm0,46.11h570v23.09H.22Zm0,46.17h570v23.09H.22ZM.22,208h570V231H.22Zm0,46.11h570v23.08H.22Z"/><path class="cls-3" d="M.22.23h228V161.77H.22Z"/><path class="cls-2" d="M19.2,7.14l2.11,6.39H28L22.6,17.46l2,6.44-5.45-4-5.39,3.92,2-6.38-5.45-3.93h6.8Zm38,0,2.05,6.39H66l-5.45,3.93,2,6.44-5.39-4-5.45,3.92,2-6.38-5.39-3.93h6.68Zm38,0,2.11,6.39h6.62l-5.39,3.93,2,6.44-5.45-4-5.39,3.92,2-6.38-5.45-3.93h6.74Zm38,0,2.05,6.39H142l-5.45,3.93,2.11,6.44-5.45-4-5.45,3.92,2.11-6.38-5.45-3.93h6.68Zm38,0,2.11,6.39H180l-5.39,3.93,2,6.44-5.45-4-5.39,3.92,2-6.38-5.39-3.93h6.68Zm38,0,2.05,6.39H218l-5.45,3.93,2.11,6.44-5.45-4-5.45,3.92,2.11-6.38-5.45-3.93h6.74Zm-171,16.18,2,6.38H47l-5.45,3.93,2,6.39L38.3,36.09,32.85,40l1.94-6.39L29.51,29.7h6.68Zm38,0,2.11,6.38H85l-5.45,3.93L81.66,40l-5.45-3.93L70.76,40l2.11-6.39L67.42,29.7h6.74Zm38,0,2.05,6.38H123l-5.45,3.93,2,6.39-5.39-3.93L108.79,40l2-6.39-5.39-3.93h6.68Zm38,0,2.11,6.38H161l-5.45,3.93L157.66,40l-5.45-3.93L146.82,40l2.05-6.39-5.45-3.93h6.8Zm38,0,2.06,6.38H199l-5.45,3.93L195.63,40l-5.4-3.93L184.79,40l2.05-6.39-5.39-3.93h6.68ZM19.2,39.43l2.11,6.5H28L22.6,49.86l2,6.39-5.45-4-5.39,4,2-6.45-5.45-3.92h6.8Zm38,0,2.05,6.45H66L60.57,49.8l2,6.39-5.39-4-5.45,4,2-6.45-5.39-3.92h6.68Zm38,0,2.11,6.45h6.62L98.54,49.8l2,6.39-5.45-4-5.39,4,2-6.45-5.45-3.92h6.74Zm38,0,2.05,6.45H142l-5.45,3.92,2.11,6.39-5.45-4-5.45,4,2.11-6.45-5.45-3.92h6.68Zm38,0,2.11,6.45H180l-5.39,3.92,2,6.39-5.45-4-5.39,4,2-6.45-5.39-3.92h6.68Zm38,0,2.05,6.45H218l-5.45,3.92,2.11,6.39-5.45-4-5.45,4,2.11-6.45-5.45-3.92h6.74ZM38.24,55.6l2,6.39H47l-5.45,3.92,2.05,6.45-5.39-4L32.79,72.3l2.05-6.39L29.45,62h6.68Zm38,0L78.32,62H85l-5.45,3.92,2.11,6.45-5.45-4L70.76,72.3l2.11-6.39L67.42,62h6.74Zm38,0L116.29,62H123l-5.45,3.92,2,6.45-5.39-4-5.45,3.92,2-6.39L105.45,62h6.68Zm38,0L154.32,62H161l-5.39,3.92,2,6.45-5.45-4-5.39,3.92,2.05-6.39L143.42,62h6.8Zm38,0L192.29,62H199l-5.45,3.92,2.06,6.45-5.4-4-5.44,3.92,2.05-6.39L181.45,62h6.68ZM19.2,71.77l2.11,6.39H28L22.6,82.09l2,6.44-5.45-4-5.39,3.92,2-6.38-5.45-3.93h6.8Zm38,0,2.05,6.39H66l-5.45,3.93,2,6.38-5.39-3.92-5.45,3.92,2-6.38-5.39-3.93h6.68Zm38,0,2.11,6.39h6.62l-5.39,3.93,2,6.44-5.45-4-5.39,3.92,2-6.38-5.45-3.93h6.74Zm38,0,2.05,6.39H142l-5.45,3.93,2.11,6.44-5.45-4-5.45,3.92,2.11-6.38-5.45-3.93h6.68Zm38,0,2.11,6.39H180l-5.39,3.93,2,6.44-5.45-4-5.39,3.92,2-6.38-5.39-3.93h6.68Zm38,0,2.05,6.39H218l-5.45,3.93,2.11,6.44-5.45-4-5.45,3.92,2.11-6.38-5.45-3.93h6.74ZM38.24,88l2,6.38H47l-5.45,3.93,2.05,6.38-5.39-4-5.45,4,2.05-6.44-5.39-3.93h6.68Zm38,0,2.11,6.38H85l-5.45,3.93,2.11,6.38-5.45-4-5.45,4,2.11-6.44-5.45-3.93h6.74Zm38,0,2.05,6.38H123l-5.45,3.93,2,6.38-5.39-4-5.45,4,2-6.44-5.39-3.93h6.68Zm38,0,2.11,6.38H161l-5.39,3.93,2,6.38-5.45-4-5.39,4,2.05-6.44-5.45-3.93h6.8Zm38,0,2.06,6.38H199l-5.45,3.93,2.06,6.38-5.4-4-5.44,4,2.05-6.44-5.39-3.93h6.68Zm-171,16.11,2.11,6.44H28l-5.39,3.93,2,6.33-5.45-3.93-5.39,3.93,2-6.39-5.45-3.92h6.8Zm38,0,2.05,6.44H66l-5.45,3.93,2.11,6.33-5.45-3.93-5.45,3.93,2.11-6.39-5.45-3.92h6.68Zm38,0,2.11,6.44h6.62l-5.39,3.93,2,6.33-5.45-3.93-5.39,3.93,2-6.39-5.45-3.92h6.74Zm38,0,2.05,6.44H142l-5.45,3.93,2.11,6.33-5.45-3.93-5.45,3.93,2.11-6.39-5.45-3.92h6.68Zm38,0,2.11,6.44H180l-5.39,3.93,2,6.33-5.45-3.93-5.39,3.93,2-6.39-5.39-3.92h6.68Zm38,0,2.05,6.44H218l-5.45,3.93,2.11,6.33-5.45-3.93-5.45,3.93,2.11-6.39-5.45-3.92h6.74Zm-171,16.17,2,6.39H47l-5.45,3.92L43.63,137l-5.39-4-5.45,3.93,2.05-6.39-5.39-3.92h6.68Zm38,0,2.11,6.39H85l-5.45,3.92L81.66,137l-5.45-4-5.45,3.93,2.11-6.39-5.45-3.92h6.74Zm38,0,2.05,6.39H123l-5.45,3.92,2,6.45-5.39-4-5.45,3.93,2-6.39-5.39-3.92h6.68Zm38,0,2.11,6.39H161l-5.39,3.92,2,6.45-5.45-4-5.39,3.93,2.05-6.39-5.45-3.92h6.8Zm38,0,2.06,6.39H199l-5.45,3.92,2.06,6.45-5.4-4-5.44,3.93,2.05-6.39-5.39-3.92h6.68ZM19.2,136.4l2.11,6.39H28l-5.39,3.93,2,6.38-5.45-3.92-5.39,3.92,2-6.44-5.45-3.93h6.8Zm38,0,2.05,6.39H66l-5.45,3.93,2.11,6.38-5.45-3.92-5.45,3.92,2.11-6.44-5.45-3.93h6.68Zm38,0,2.11,6.39h6.62l-5.28,3.93,2,6.38-5.45-3.92-5.39,3.92,2-6.44-5.44-3.93H93.2Zm38,0,2.05,6.39H142l-5.45,3.93,2.11,6.38-5.45-3.92-5.45,3.92,2.11-6.44-5.45-3.93h6.68Zm38,0,2.11,6.39H180l-5.39,3.93,2,6.38-5.45-3.92-5.39,3.92,2-6.44-5.39-3.93h6.68Zm38,0,2.05,6.39H218l-5.45,3.93,2.11,6.38-5.45-3.92-5.45,3.92,2.11-6.44-5.45-3.93h6.74Z"/></svg>